Coordinates
version=1
nRows=26
nColumns=20
inDegrees=yes

Units are S.I. units (second, meters, Newtons, ...)
Angles are in degrees.

endheader
time	pelvis_tilt	pelvis_list	pelvis_rotation	pelvis_tx	pelvis_ty	pelvis_tz	hip_flexion_r	hip_adduction_r	hip_rotation_r	knee_angle_r	ankle_angle_r	hip_flexion_l	hip_adduction_l	hip_rotation_l	knee_angle_l	ankle_angle_l	lumbar_extension	lumbar_bending	lumbar_rotation
      1.82000000	     -1.27710828	     -4.68255367	      7.90252357	      0.35658065	      0.88514335	     -0.27779785	     -0.57984380	      4.64231755	    -14.71200573	      0.24045375	      6.24161209	     22.41725814	     -3.12335659	      8.25578834	    -67.11707169	     10.80754363	     -1.96268842	     10.28383415	      0.62883812
      1.83000000	     -1.26066392	     -4.38651182	      7.36378004	      0.36772300	      0.88548499	     -0.27591567	     -1.65120760	      4.58731336	    -14.21978930	      0.74925097	      6.42313670	     23.78331864	     -2.92312590	      7.15991914	    -65.95130750	     11.64704563	     -2.31110630	      9.91797288	      1.28068433
      1.84000000	     -1.19932012	     -4.10813903	      6.84017915	      0.37883917	      0.88571243	     -0.27410213	     -2.76235453	      4.53107425	    -13.72371326	      1.24879788	      6.62265505	     25.01049542	     -2.77485569	      6.05586436	    -64.44768049	     12.23248308	     -2.70222928	      9.56458995	      1.87961998
      1.85000000	     -1.15074620	     -3.86565454	      6.31971908	      0.38994623	      0.88576404	     -0.27234837	     -3.82770590	      4.48338635	    -13.27932138	      1.69373994	      6.82272831	     26.14577838	     -2.69080632	      4.93218894	    -62.60693542	     12.68913187	     -3.06137243	      9.23778250	      2.37969914
      1.86000000	     -1.09246969	     -3.66177199	      5.80732281	      0.40105870	      0.88566612	     -0.27067157	     -4.89308023	      4.45578962	    -12.86114804	      2.12801551	      7.03665268	     27.15090159	     -2.65685201	      3.81899892	    -60.43181371	     13.04104520	     -3.41580502	      8.94651665	      2.82807109
      1.87000000	     -0.97379657	     -3.49424400	      5.32153675	      0.41220026	      0.88548027	     -0.26907976	     -6.02743316	      4.45670596	    -12.46036337	      2.57450487	      7.24868153	     27.96173669	     -2.67132803	      2.71737221	    -57.92251485	     13.33259942	     -3.82279154	      8.68890356	      3.17164411
      1.88000000	     -0.98599162	     -3.39803890	      4.78151777	      0.42333639	      0.88498343	     -0.26745579	     -6.95543733	      4.49297173	    -12.12029831	      2.90955315	      7.49318908	     28.78389724	     -2.78543040	      1.56308376	    -55.10076840	     13.53185160	     -4.06838612	      8.48155172	      3.52133635
      1.89000000	     -0.96727971	     -3.34379117	      4.24513668	      0.43453840	      0.88437564	     -0.26586378	     -7.91505056	      4.56211874	    -11.77586924	      3.23848891	      7.73302048	     29.42387174	     -2.95954840	      0.38964129	    -51.95081014	     13.64274670	     -4.33096762	      8.30533505	      3.82675204
      1.90000000	     -0.95087409	     -3.33683663	      3.68764663	      0.44580680	      0.88361832	     -0.26427422	     -8.85827522	      4.66089705	    -11.43951007	      3.53949533	      7.96190616	     29.91716961	     -3.20422106	     -0.83033323	    -48.49718635	     13.61938477	     -4.57995668	      8.16440850	      4.09542551
      1.91000000	     -0.96214088	     -3.39291526	      3.08375655	      0.45718454	      0.88267270	     -0.26260569	     -9.76025282	      4.80665543	    -11.09285989	      3.81221071	      8.21323263	     30.29754331	     -3.55531239	     -2.14872705	    -44.78618705	     13.39064814	     -4.77981276	      8.06000775	      4.39458596
      1.92000000	     -1.02144677	     -3.51448207	      2.43487367	      0.46867622	      0.88152120	     -0.26091576	    -10.58944704	      4.98749396	    -10.67698232	      4.02202697	      8.48137780	     30.59326489	     -3.99421853	     -3.54681437	    -40.86877215	     12.92319233	     -4.90957720	      8.00971760	      4.68586964
      1.93000000	     -0.96326282	     -3.68181237	      1.73117275	      0.48034177	      0.88037785	     -0.25914263	    -11.53697819	      5.19482594	    -10.27184862	      4.19650121	      8.67694001	     30.62781737	     -4.52442321	     -5.09155826	    -36.81463630	     12.22207463	     -5.16712664	      7.98116156	      5.03195485
      1.94000000	     -0.99585316	     -3.90192660	      0.96048035	      0.49221880	      0.87895983	     -0.25733252	    -12.39956506	      5.41364906	     -9.71821896	      4.34869645	      8.93787735	     30.66184974	     -5.11674576	     -6.73960234	    -32.75930394	     11.34035985	     -5.29111797	      7.98670834	      5.41267409
      1.95000000	     -0.94933662	     -4.15620091	      0.14163803	      0.50432842	      0.87750238	     -0.25550008	    -13.35496300	      5.63055407	     -9.12314486	      4.47146194	      9.16282709	     30.53207970	     -5.74626739	     -8.48117646	    -28.81273281	     10.33655712	     -5.49035978	      8.00408671	      5.82329667
      1.96000000	     -0.89286818	     -4.43215617	     -0.70972301	      0.51667775	      0.87592910	     -0.25370553	    -14.33172590	      5.82576792	     -8.47390289	      4.56437746	      9.37922934	     30.34496766	     -6.36363456	    -10.20096748	    -25.10784386	      9.33902173	     -5.67574445	      8.02491263	      6.24884572
      1.97000000	     -0.81152353	     -4.71266318	     -1.58434637	      0.52927129	      0.87428931	     -0.25195052	    -15.34648092	      5.98103453	     -7.77650282	      4.62728570	      9.57965985	     30.09888753	     -6.93985480	    -11.78183802	    -21.74620496	      8.45128756	     -5.86431397	      8.02474405	      6.69098456
      1.98000000	     -0.73951755	     -4.98585196	     -2.46156525	      0.54210836	      0.87256846	     -0.25025221	    -16.35607518	      6.08888812	     -7.06148216	      4.65140722	      9.76303211	     29.84742942	     -7.45773640	    -13.11554255	    -18.82683458	      7.79315730	     -6.01080752	      7.99143697	      7.11847146
      1.99000000	     -0.65118699	     -5.24289620	     -3.31795140	      0.55518708	      0.87083290	     -0.24860762	    -17.38749132	      6.14524258	     -6.33367328	      4.63916872	      9.92757619	     29.56451175	     -7.91640586	    -14.13708316	    -16.40691643	      7.40666141	     -6.14195236	      7.91174377	      7.52080072
      2.00000000	     -0.54303723	     -5.47128053	     -4.14810984	      0.56851291	      0.86912131	     -0.24698519	    -18.44436713	      6.13965930	     -5.59848743	      4.59899713	     10.08367636	     29.24309757	     -8.32393845	    -14.85463092	    -14.52965906	      7.27945598	     -6.25547552	      7.76271225	      7.88047156
      2.01000000	     -0.55438268	     -5.71528326	     -4.98630012	      0.58205525	      0.86730557	     -0.24531046	    -19.34384110	      6.12258244	     -4.83457678	      4.45729908	     10.23303664	     29.05939966	     -8.78133452	    -15.39407950	    -13.27487387	      7.35054651	     -6.19177746	      7.60999356	      8.23712429
      2.02000000	     -0.42513656	     -5.85521132	     -5.79299721	      0.59589348	      0.86575084	     -0.24362906	    -20.36348052	      5.95672989	     -4.19170440	      4.24512787	     10.32423589	     28.66986687	     -9.13557856	    -15.82639262	    -12.51351729	      7.51928362	     -6.23374256	      7.28319887	      8.60055875
      2.03000000	     -0.39467309	     -6.02749458	     -6.55401302	      0.60993668	      0.86415067	     -0.24195173	    -21.25476672	      5.80906292	     -3.49076261	      3.94920276	     10.43408509	     28.42523591	     -9.55118585	    -16.15657911	    -12.36722599	      7.65752047	     -6.11497845	      6.98378269	      8.88127912
      2.04000000	     -0.27941600	     -6.11271163	     -7.27345735	      0.62424590	      0.86278992	     -0.24027323	    -22.19121003	      5.53464546	     -2.84886458	      3.56499743	     10.49265319	     28.04399426	     -9.87735804	    -16.43711654	    -12.61414434	      7.56299588	     -6.03054691	      6.53859111	      9.15751837
      2.05000000	     -0.26764064	     -6.21740265	     -7.96320267	      0.63871065	      0.86146301	     -0.23861622	    -22.93277584	      5.26247777	     -2.21746932	      3.00267974	     10.49428895	     27.79538139	    -10.24690084	    -16.62349326	    -13.30073303	      7.18087245	     -5.78695049	      6.11762492	      9.43106562
      2.06000000	     -0.20383301	     -6.24893605	     -8.58220467	      0.65336678	      0.86038623	     -0.23707018	    -23.64267122	      4.88897962	     -1.60674167	      2.29214615	     10.42289320	     27.47964391	    -10.51534481	    -16.73235819	    -14.25173981	      6.44331657	     -5.54581887	      5.60188205	      9.61941475
      2.07000000	     -0.17203973	     -6.23592479	     -9.12621281	      0.66812259	      0.85951926	     -0.23565887	    -24.18631027	      4.46769604	     -1.02927017	      1.36231183	     10.23222131	     27.18898424	    -10.69740509	    -16.61562587	    -15.35902366	      5.31184155	     -5.22804042	      5.04035639	      9.78466337
